<svg width="554" height="95" viewBox="0 0 554 95" fill="none" xmlns="http://www.w3.org/2000/svg">
    <path d="M155.188 52.6406H129.172V27.6094H114.219V90H129.172V64.9219H155.188V90H170.188V27.6094H155.188V52.6406ZM228.808 77.7188C228.479 78.0469 228.011 78.1875 227.448 78.1875C226.183 78.1875 225.526 77.3438 225.526 75.6094V42H210.761V69.5625C210.761 75.0469 207.433 78.5625 202.183 78.5625C197.167 78.5625 194.026 75.0469 194.026 69.5625V42H179.167V70.4062C179.167 76.6406 180.995 81.6562 184.651 85.4531C188.308 89.25 193.042 91.1719 198.854 91.1719C204.995 91.125 209.776 88.875 213.245 84.3281C215.026 88.875 218.495 91.1719 223.698 91.1719C226.558 91.1719 228.901 90.5156 230.823 89.1562L231.479 88.0781L229.933 78.2812L228.808 77.7188ZM297.599 40.8281C290.943 40.8281 285.552 43.125 281.474 47.7656C277.959 43.125 272.943 40.8281 266.334 40.8281C260.193 40.875 255.224 43.1719 251.427 47.7656C249.646 43.125 245.99 40.8281 240.506 40.8281C237.74 40.8281 235.396 41.4844 233.474 42.8438L232.818 43.9219L234.365 53.7188L235.396 54.2812C235.865 53.9531 236.334 53.8125 236.849 53.8125C238.115 53.8125 238.771 54.6562 238.771 56.3906V90H253.537V62.625C253.537 59.8594 254.381 57.6562 256.021 55.9688C257.662 54.2812 259.771 53.4375 262.396 53.4375C267.506 53.4375 270.74 57 270.74 62.625V90H285.599V62.625C285.599 57.1406 289.115 53.4375 294.365 53.4375C299.615 53.4375 302.709 57 302.709 62.625V90H317.474V61.5938C317.474 55.3125 315.646 50.2969 311.99 46.5C308.334 42.7031 303.552 40.8281 297.599 40.8281ZM371.735 77.7188C371.407 78.0469 370.891 78.1875 370.282 78.1875C369.063 78.1875 368.454 77.3438 368.454 75.6094V61.125C368.454 54.1875 366.344 49.0781 362.126 45.75C357.907 42.4688 352.469 40.8281 345.813 40.8281C342.485 40.8281 338.969 41.3438 335.36 42.4219C331.704 43.5 328.61 45 326.126 46.9688V48.0469L330.907 55.6406H331.985C335.313 53.0156 339.251 51.7031 343.704 51.7031C346.891 51.7031 349.516 52.4531 351.626 53.9062C353.688 55.3594 354.719 57.2812 354.719 59.6719V61.875C350.548 60.3281 346.657 59.5781 343.001 59.5781C336.813 59.5781 331.844 61.0781 328.048 64.0312C324.251 66.9844 322.376 70.9688 322.376 75.8906C322.376 80.4375 324.11 84.0938 327.626 86.9062C331.141 89.7656 335.688 91.1719 341.313 91.1719C347.313 91.1719 352.516 89.1562 356.923 85.125C358.704 89.1562 361.938 91.1719 366.626 91.1719C369.391 91.1719 371.735 90.5156 373.657 89.1562L374.313 88.0781L372.766 78.2812L371.735 77.7188ZM344.735 81.75C339.719 81.75 336.391 79.1719 336.391 75.2344C336.391 71.1094 339.86 68.3906 345.251 68.3906C348.204 68.3906 351.485 69.1875 355.001 70.7812V73.4062C355.001 75.6094 354.016 77.5781 352.001 79.2188C349.985 80.9062 347.548 81.75 344.735 81.75ZM408.511 40.8281C402.23 40.8281 397.261 43.125 393.605 47.7656C391.824 43.125 388.168 40.8281 382.683 40.8281C379.918 40.8281 377.574 41.4844 375.652 42.8438L374.996 43.9219L376.543 53.7188L377.574 54.2812C378.043 53.9531 378.511 53.8125 379.027 53.8125C380.293 53.8125 380.949 54.6562 380.949 56.3906V90H395.714V62.625C395.714 59.8594 396.558 57.6562 398.246 55.9688C399.886 54.2812 402.089 53.4375 404.761 53.4375C410.246 53.4375 413.574 57.1406 413.574 62.625V90H428.48V61.5938C428.48 55.4531 426.652 50.4375 422.949 46.5938C419.246 42.75 414.464 40.8281 408.511 40.8281ZM436.803 77.8125C436.803 86.625 441.538 91.1719 449.834 91.1719C452.6 91.1719 454.944 90.5156 456.866 89.1562L457.522 88.0781L456.022 78.2812L454.944 77.7188C454.616 78.0469 454.1 78.1875 453.491 78.1875C452.272 78.1875 451.663 77.3438 451.663 75.6094V25.2188L450.538 24.5156L436.803 26.0625V77.8125ZM505.454 84C510.423 79.2188 512.908 73.2188 512.908 66C512.908 58.7812 510.423 52.7812 505.454 48C500.439 43.2188 494.111 40.8281 486.423 40.8281C478.736 40.8281 472.361 43.2188 467.345 48C462.329 52.7812 459.798 58.7812 459.798 66C459.798 73.2188 462.329 79.2188 467.345 84C472.361 88.7812 478.736 91.1719 486.423 91.1719C494.111 91.1719 500.439 88.7812 505.454 84ZM477.892 74.9531C475.642 72.6562 474.517 69.6562 474.517 66C474.517 62.3906 475.642 59.4375 477.892 57.0469C480.095 54.7031 482.954 53.5312 486.423 53.5312C489.845 53.5312 492.704 54.7031 494.954 57.0469C497.204 59.4375 498.329 62.3906 498.329 66C498.329 69.6094 497.204 72.5625 494.954 74.9062C492.704 77.2969 489.845 78.4688 486.423 78.4688C482.954 78.4688 480.095 77.2969 477.892 74.9531ZM546.965 76.7344C545.512 77.9531 543.918 78.5625 542.137 78.5625C538.293 78.5625 536.371 76.3125 536.371 71.7656V52.9219H550.481V42H536.371V27.0469L535.246 26.3438L521.699 27.7969V42H513.356V52.9219H521.699V73.2188C521.699 79.1719 523.387 83.625 526.809 86.625C530.184 89.6719 534.449 91.1719 539.559 91.1719C544.152 91.1719 548.184 89.9062 551.652 87.3281L552.121 86.1562L548.09 77.25L546.965 76.7344Z" fill="#111827"/>
    <g clip-path="url(#clip0_9456_355980)">
        <path d="M60.2874 51.9903C69.5172 51.9903 76.9995 44.6051 76.9995 35.4951C76.9995 26.3851 69.5172 19 60.2874 19C51.0575 19 43.5752 26.3851 43.5752 35.4951C43.5752 44.6051 51.0575 51.9903 60.2874 51.9903Z" fill="#F45D48"/>
        <path d="M33.4243 35.3998V35.5894C33.4243 35.5576 33.4243 35.5259 33.4243 35.4941C33.4243 35.4623 33.4233 35.4316 33.4243 35.3998Z" fill="#F45D48"/>
        <path d="M16.7122 95C25.942 95 33.4243 87.6149 33.4243 78.5049C33.4243 69.3949 25.942 62.0098 16.7122 62.0098C7.48229 62.0098 0 69.3949 0 78.5049C0 87.6149 7.48229 95 16.7122 95Z" fill="#F45D48"/>
        <path d="M76.9992 78.5058C76.9991 80.672 76.5667 82.8169 75.7267 84.8181C74.8867 86.8194 73.6556 88.6377 72.1036 90.1693C70.5516 91.701 68.7092 92.9159 66.6816 93.7447C64.6539 94.5735 62.4807 95.0001 60.286 94.9999C55.8701 94.9997 51.6337 93.2746 48.5023 90.2014C45.3709 87.1281 43.5991 82.9566 43.5738 78.5981C43.5738 78.5663 43.5738 78.5345 43.5738 78.5027C43.5738 78.471 43.5738 78.4402 43.5738 78.4084C43.5229 63.8395 31.5676 52.0384 16.8069 51.9881H16.6138C12.1978 51.9635 7.97124 50.2147 4.85751 47.124C1.74378 44.0332 -0.00397687 39.8517 -0.00390625 35.493C-0.00390625 31.1182 1.75683 26.9226 4.89097 23.8292C8.02511 20.7357 12.2759 18.9979 16.7083 18.9979C21.1242 18.9981 25.3606 20.7232 28.492 23.7964C31.6233 26.8697 33.3952 31.0412 33.4204 35.3997C33.4204 35.4315 33.4204 35.4622 33.4204 35.494C33.4204 35.5258 33.4204 35.5576 33.4204 35.5894C33.4713 50.1901 45.4797 62.0107 60.2839 62.0107C62.4789 62.0103 64.6524 62.4366 66.6804 63.2654C68.7083 64.0942 70.551 65.3092 72.1032 66.8409C73.6554 68.3727 74.8867 70.1912 75.7268 72.1927C76.5668 74.1942 76.9992 76.3394 76.9992 78.5058Z" fill="#F45D48"/>
    </g>
    <defs>
        <clipPath id="clip0_9456_355980">
            <rect width="77" height="76" fill="" transform="translate(0 19)"/>
        </clipPath>
    </defs>
</svg>
